# xmcd CD database file
#
# Track frame offsets:
#	150
#	34585
#	48151
#	62434
#	75043
#	88995
#	105032
#	117556
#	131607
#	144352
#	157438
#	181161
#	216017
#	239921
#	263735
#
# Disc length: 4150 seconds
#
# Revision: 0
# Processed by: cddbd v1.5.2PL0 Copyright (c) Steve Scherf et al.
# Submitted via: CDex 1.84
#
DISCID=c610340f
DTITLE=Thelonious Monk - The Complete Albums Collection (1952-1954) [CD2]
DYEAR=2015
DGENRE=Jazz
TTITLE0=Blue Monk
TTITLE1=Just A Gigolo
TTITLE2=Bemsha Swing
TTITLE3=Reflections
TTITLE4=Little Rootie Tootie
TTITLE5=Sweet And Loveley
TTITLE6=Bye-Ya
TTITLE7=Monk's Dream
TTITLE8=Trinkle Tinkle
TTITLE9=These Foolish Things
TTITLE10=The Way You Look Tonight
TTITLE11=I Want to Be Happy
TTITLE12=Work
TTITLE13=Nutty
TTITLE14=Friday the 13th
EXTD=YEAR: 2015
EXTT0=
EXTT1=
EXTT2=
EXTT3=
EXTT4=
EXTT5=
EXTT6=
EXTT7=
EXTT8=
EXTT9=
EXTT10=
EXTT11=
EXTT12=
EXTT13=
EXTT14=
PLAYORDER=
